<svg xmlns="http://www.w3.org/2000/svg" id="SvgjsSvg61449" width="4096" height="1505.8440710209957" version="1.1" xmlns:xlink="http://www.w3.org/1999/xlink" xmlns:svgjs="http://svgjs.com/svgjs"><defs id="SvgjsDefs61450"></defs><g id="SvgjsG61451" transform="translate(328, 327.99999999999994) scale(34.4)" opacity="1"><defs id="SvgjsDefs18832"></defs><g id="SvgjsG18833" transform="scale(0.21645021645021645)" opacity="1"><g id="SvgjsG18834" class="brjERlnvn" transform="translate(0, 7.105427357601002e-15) scale(0.2229219435931255)" light-content="false" non-strokable="false" fill="#19cada"><path fill-rule="evenodd" clip-rule="evenodd" d="M415.999 319.998c-20.281 0-38.906-6.469-54.359-17.25a.826.826 0 0 1-.172.156c-3.25-2.281-7.188-3.656-11.469-3.656a19.93 19.93 0 0 0-14.156 5.844l-75.813 56.126c.016.062.047.141.062.203-6.614 5.375-9.551 20.75-7.528 29.031a.914.914 0 0 0-.172.094c2.273 8.109 3.594 16.594 3.594 25.453 0 53.016-42.961 96.001-95.993 96.001-53.016 0-96.001-42.985-96.001-96.001 0-35.5 19.329-66.422 47.993-83.031v-.172c6.383-4.829 11.57-14.235 10.352-22.501.062-.062.117-.109.188-.156l-16.836-83.254c-1.883-14.751-10.195-34.806-17.719-35.212v-.086C38.688 187.517 0 146.313 0 95.993 0 42.984 42.969 0 96 0c53.008 0 95.993 42.984 95.993 95.993 0 8.844-7.156 16.008-16 16.008s-16-7.164-16-16.008c0-35.345-28.649-64.009-63.993-64.009-35.352 0-64.016 28.664-64.016 64.009 0 35.352 28.664 63.992 64.016 63.992 17.664 0 33.984 22.586 39.992 56h.141l17.508 86.622-.062.188c5.07 27.812-9.032 49.938-21.946 55.892l-.102.25C110.54 369.437 96 390.921 96 415.999c0 35.344 28.641 63.985 63.993 63.985 35.344 0 64.008-28.642 64.008-63.985 0-10.062-2.477-19.5-6.633-27.969l.289-.828c-.594-1.016-1.312-1.922-1.664-3.219-4.359-15.5 2.867-32.016 17.649-42.922l.031-.125 98.216-72.751c10.328-7.656 28.844-5.312 47.016 7.984l.297.047c10.406 7.359 23.062 11.781 36.797 11.781 35.344 0 63.985-28.652 63.985-63.996 0-35.353-28.642-64.017-63.985-64.017-22.109 0-41.453 11.305-52.953 28.375l-.312.117c-9.094 12.625-27.594 19.82-39.86 15.344l-.375.133-61.422-23.531c-8.192-3.312-12.161-12.625-8.872-20.828 3.289-8.195 12.622-12.164 20.825-8.875l38.75 14.867c.203-.539.422-1.055.625-1.594.516.438 1.016.914 1.594 1.32 5.703 4.023 22.142 4.141 28.704-3.781.203.07.406.156.609.219C360.874 141.164 386.828 128 416 128c53.016 0 96.001 42.969 96.001 96.001-.001 53.013-42.986 95.997-96.002 95.997zM215.993 159.985c-8.844 0-16.008-7.156-16.008-16 0-8.82 7.164-15.984 16.008-15.984 8.836 0 16 7.164 16 15.984.001 8.844-7.163 16-16 16z"></path></g><g id="SvgjsG18835" class="text" transform="translate(302.6259507168562, 73.31400877992007) scale(1)" light-content="false" fill="#454545"><path d="M-114.66 0L-114.66 -43.23L-123.43 -43.23L-133.81 -21.18C-134.1 -20.53 -134.45 -19.62 -134.86 -18.47C-135.27 -19.62 -135.62 -20.53 -135.91 -21.18L-145.97 -43.23L-155.55 -43.23L-155.55 0L-146.16 0L-146.16 -21.43L-146.16 -22.79C-145.95 -22.17 -145.79 -21.72 -145.67 -21.43L-135.04 0.74L-124.54 -21.55C-124.38 -21.88 -124.19 -22.3 -123.99 -22.79C-124.03 -22.3 -124.05 -21.84 -124.05 -21.43L-124.05 0Z M-85.76 0.74C-80.73 0.74 -76.64 -1.17 -73.47 -5L-78.65 -10.19C-80.51 -7.97 -82.87 -6.86 -85.76 -6.86C-87.53 -6.86 -88.99 -7.34 -90.14 -8.31C-91.29 -9.27 -91.91 -10.75 -91.99 -12.72L-71.8 -12.72C-71.63 -13.79 -71.55 -15.34 -71.55 -17.36C-71.55 -22.21 -72.87 -25.92 -75.5 -28.47C-78.14 -31.03 -81.56 -32.3 -85.76 -32.3C-90.37 -32.3 -94.02 -30.82 -96.72 -27.85C-99.42 -24.89 -100.76 -20.88 -100.76 -15.81C-100.76 -10.62 -99.43 -6.57 -96.75 -3.64C-94.07 -0.72 -90.41 0.74 -85.76 0.74ZM-91.93 -19.46C-91.73 -21.1 -91.11 -22.39 -90.08 -23.32C-89.05 -24.24 -87.73 -24.7 -86.13 -24.7C-82.59 -24.7 -80.59 -22.95 -80.14 -19.46Z M-46.54 0.74C-43.41 0.74 -41.27 -0.37 -40.11 -2.59L-40.11 0L-31.16 0L-31.16 -44.59L-40.11 -40.58L-40.11 -29.15C-41.6 -31.25 -43.7 -32.3 -46.41 -32.3C-50.2 -32.3 -53.33 -30.8 -55.8 -27.79C-58.27 -24.79 -59.51 -20.79 -59.51 -15.81C-59.51 -10.46 -58.34 -6.36 -56.02 -3.52C-53.69 -0.68 -50.53 0.74 -46.54 0.74ZM-44.99 -7.91C-48.7 -7.91 -50.55 -10.54 -50.55 -15.81C-50.55 -18.32 -50.07 -20.26 -49.1 -21.62C-48.13 -22.98 -46.76 -23.65 -44.99 -23.65C-42.85 -23.65 -41.23 -22.95 -40.11 -21.55L-40.11 -9.88C-41.06 -8.56 -42.69 -7.91 -44.99 -7.91Z M-15.72 0L-6.33 0L-6.33 -15.5L3.43 -15.5C5.98 -15.5 8.27 -15.91 10.28 -16.74C12.3 -17.56 13.89 -18.65 15.04 -20.01C16.19 -21.37 17.06 -22.84 17.63 -24.43C18.21 -26.01 18.5 -27.65 18.5 -29.34C18.5 -33.25 17.27 -36.54 14.82 -39.22C12.37 -41.9 8.57 -43.23 3.43 -43.23L-15.72 -43.23ZM3.8 -24.33L-6.33 -24.33L-6.33 -34.34L3.8 -34.34C5.53 -34.34 6.78 -33.84 7.57 -32.83C8.35 -31.82 8.74 -30.65 8.74 -29.34C8.74 -27.98 8.33 -26.8 7.5 -25.82C6.68 -24.83 5.45 -24.33 3.8 -24.33Z M34.74 -34.59C36.18 -34.59 37.4 -35.09 38.39 -36.1C39.37 -37.11 39.87 -38.31 39.87 -39.71C39.87 -41.15 39.37 -42.36 38.39 -43.33C37.4 -44.29 36.18 -44.78 34.74 -44.78C33.3 -44.78 32.08 -44.28 31.07 -43.3C30.06 -42.31 29.55 -41.11 29.55 -39.71C29.55 -38.31 30.07 -37.11 31.1 -36.1C32.13 -35.09 33.34 -34.59 34.74 -34.59ZM30.23 0L39.19 0L39.19 -31.56L30.23 -31.56Z M69.88 0.74C73.71 0.74 76.86 -0.74 79.33 -3.71C81.8 -6.67 83.04 -10.68 83.04 -15.75C83.04 -21.06 81.86 -25.15 79.49 -28.01C77.12 -30.87 73.96 -32.3 70.01 -32.3C67.17 -32.3 65.05 -31.33 63.65 -29.4L63.65 -31.56L54.69 -31.56L54.69 12.29L63.65 8.28L63.65 -2.04C65.09 -0.19 67.17 0.74 69.88 0.74ZM68.46 -7.91C67.23 -7.91 66.18 -8.11 65.31 -8.52C64.45 -8.93 63.89 -9.41 63.65 -9.94L63.65 -21.74C64.84 -23.02 66.45 -23.65 68.46 -23.65C72.21 -23.65 74.08 -21.02 74.08 -15.75C74.08 -13.28 73.59 -11.35 72.6 -9.97C71.61 -8.6 70.23 -7.91 68.46 -7.91Z M110.4 0.74C115.42 0.74 119.52 -1.17 122.69 -5L117.5 -10.19C115.65 -7.97 113.28 -6.86 110.4 -6.86C108.63 -6.86 107.17 -7.34 106.01 -8.31C104.86 -9.27 104.24 -10.75 104.16 -12.72L124.36 -12.72C124.52 -13.79 124.6 -15.34 124.6 -17.36C124.6 -22.21 123.29 -25.92 120.65 -28.47C118.02 -31.03 114.6 -32.3 110.4 -32.3C105.79 -32.3 102.13 -30.82 99.44 -27.85C96.74 -24.89 95.39 -20.88 95.39 -15.81C95.39 -10.62 96.73 -6.57 99.41 -3.64C102.08 -0.72 105.75 0.74 110.4 0.74ZM104.22 -19.46C104.43 -21.1 105.05 -22.39 106.08 -23.32C107.11 -24.24 108.42 -24.7 110.03 -24.7C113.57 -24.7 115.57 -22.95 116.02 -19.46Z M138.19 0L147.15 0L147.15 -17.11C147.15 -21.47 148.96 -23.65 152.58 -23.65C154.6 -23.65 156.47 -22.93 158.2 -21.49L159.38 -29.65C157.69 -31.42 155.61 -32.3 153.14 -32.3C151.7 -32.3 150.44 -31.91 149.37 -31.13C148.3 -30.35 147.56 -29.54 147.15 -28.72L147.15 -31.56L138.19 -31.56Z"></path></g></g></g></svg>